<svg xmlns="http://www.w3.org/2000/svg" version="1.1" xmlns:xlink="http://www.w3.org/1999/xlink" xmlns:svgjs="http://svgjs.dev/svgjs" width="1000" height="239" viewBox="0 0 1000 239"><g transform="matrix(1,0,0,1,-0.6058637950201842,0.5043578205813333)"><svg viewBox="0 0 396 95" data-background-color="#ffffff" preserveAspectRatio="xMidYMid meet" height="239" width="1000" xmlns="http://www.w3.org/2000/svg" xmlns:xlink="http://www.w3.org/1999/xlink"><g id="tight-bounds" transform="matrix(1,0,0,1,0.2400730948581895,-0.20047695797165943)"><svg viewBox="0 0 395.52 95.40050308155836" height="95.40050308155836" width="395.52"><g><svg viewBox="0 0 565.2153798360746 136.33149167120655" height="95.40050308155836" width="395.52"><g><rect width="5.714540652501375" height="118.37756150900712" x="149.02130867964286" y="8.976965081099713" fill="#31c48d" opacity="1" stroke-width="0" stroke="transparent" fill-opacity="1" class="rect-o-0" data-fill-palette-color="primary" rx="1%" id="o-0" data-palette-color="#31c48d"></rect></g><g transform="matrix(1,0,0,1,169.69537983607452,18.841761873516973)"><svg viewBox="0 0 395.52 98.6479679241726" height="98.6479679241726" width="395.52"><g id="textblocktransform"><svg viewBox="0 0 395.52 98.6479679241726" height="98.6479679241726" width="395.52" id="textblock"><g><svg viewBox="0 0 395.52 63.367434656340755" height="63.367434656340755" width="395.52"><g transform="matrix(1,0,0,1,0,0)"><svg width="395.52" viewBox="3.200000047683716 -32.5 206.58999633789062 33.099998474121094" height="63.367434656340755" data-palette-color="#31c48d"><path d="M13.05 0L3.2 0 3.2-32.5 12.55-32.5Q16.05-32.5 18.95-31.6 21.85-30.7 23.95-28.75 26.05-26.8 27.23-23.75 28.4-20.7 28.4-16.4L28.4-16.4Q28.4-12.1 27.25-9 26.1-5.9 24.03-3.9 21.95-1.9 19.15-0.95 16.35 0 13.05 0L13.05 0ZM11.8-25.6L11.8-6.9 12.1-6.9Q13.65-6.9 15.03-7.33 16.4-7.75 17.4-8.8 18.4-9.85 19-11.7 19.6-13.55 19.6-16.4L19.6-16.4Q19.6-19.25 19-21.05 18.4-22.85 17.4-23.85 16.4-24.85 15.03-25.23 13.65-25.6 12.1-25.6L12.1-25.6 11.8-25.6ZM45 0.6L45 0.6Q42.5 0.6 40.17-0.28 37.85-1.15 36.05-2.83 34.25-4.5 33.17-6.95 32.1-9.4 32.1-12.5L32.1-12.5Q32.1-15.6 33.17-18.05 34.25-20.5 36.05-22.18 37.85-23.85 40.17-24.73 42.5-25.6 45-25.6L45-25.6Q47.45-25.6 49.77-24.73 52.1-23.85 53.9-22.18 55.7-20.5 56.8-18.05 57.9-15.6 57.9-12.5L57.9-12.5Q57.9-9.4 56.8-6.95 55.7-4.5 53.9-2.83 52.1-1.15 49.77-0.28 47.45 0.6 45 0.6ZM45-6.3L45-6.3Q47.2-6.3 48.15-7.98 49.1-9.65 49.1-12.5L49.1-12.5Q49.1-15.35 48.15-17.03 47.2-18.7 45-18.7L45-18.7Q42.8-18.7 41.85-17.03 40.9-15.35 40.9-12.5L40.9-12.5Q40.9-9.65 41.85-7.98 42.8-6.3 45-6.3ZM77.09 0.6L77.09 0.6Q74.15 0.6 71.57-0.28 69-1.15 67.12-2.83 65.25-4.5 64.17-6.95 63.1-9.4 63.1-12.5L63.1-12.5Q63.1-15.6 64.3-18.05 65.5-20.5 67.52-22.18 69.55-23.85 72.2-24.73 74.84-25.6 77.75-25.6L77.75-25.6Q80.7-25.6 83.15-24.7 85.59-23.8 87.2-22.3L87.2-22.3 83.3-17Q81.9-17.95 80.67-18.32 79.45-18.7 78.25-18.7L78.25-18.7Q75.4-18.7 73.65-17.03 71.9-15.35 71.9-12.5L71.9-12.5Q71.9-9.65 73.59-7.98 75.3-6.3 77.95-6.3L77.95-6.3Q79.8-6.3 81.3-6.95 82.8-7.6 84.09-8.4L84.09-8.4 87.5-3Q85.15-1.1 82.37-0.25 79.59 0.6 77.09 0.6ZM109.29 0.6L109.29 0.6Q106.19 0.6 104.07-0.2 101.94-1 100.62-2.48 99.29-3.95 98.69-6.03 98.09-8.1 98.09-10.6L98.09-10.6 98.09-18.3 92.09-18.3 92.09-24.7 98.49-25 99.59-32.5 106.69-32.5 106.69-25 116.59-25 116.59-18.3 106.69-18.3 106.69-10.75Q106.69-8.05 107.92-7.08 109.14-6.1 111.54-6.1L111.54-6.1Q112.84-6.1 113.97-6.33 115.09-6.55 116.09-6.9L116.09-6.9 117.59-0.7Q115.94-0.25 113.89 0.18 111.84 0.6 109.29 0.6ZM134.99 0.6L134.99 0.6Q132.49 0.6 130.17-0.28 127.84-1.15 126.04-2.83 124.24-4.5 123.17-6.95 122.09-9.4 122.09-12.5L122.09-12.5Q122.09-15.6 123.17-18.05 124.24-20.5 126.04-22.18 127.84-23.85 130.17-24.73 132.49-25.6 134.99-25.6L134.99-25.6Q137.44-25.6 139.77-24.73 142.09-23.85 143.89-22.18 145.69-20.5 146.79-18.05 147.89-15.6 147.89-12.5L147.89-12.5Q147.89-9.4 146.79-6.95 145.69-4.5 143.89-2.83 142.09-1.15 139.77-0.28 137.44 0.6 134.99 0.6ZM134.99-6.3L134.99-6.3Q137.19-6.3 138.14-7.98 139.09-9.65 139.09-12.5L139.09-12.5Q139.09-15.35 138.14-17.03 137.19-18.7 134.99-18.7L134.99-18.7Q132.79-18.7 131.84-17.03 130.89-15.35 130.89-12.5L130.89-12.5Q130.89-9.65 131.84-7.98 132.79-6.3 134.99-6.3ZM163.79 0L155.19 0 155.19-25 162.24-25 162.89-19.7 163.09-19.7Q164.89-22.8 167.44-24.2 169.99-25.6 172.84-25.6L172.84-25.6Q174.59-25.6 175.56-25.33 176.54-25.05 177.59-24.6L177.59-24.6 175.89-17.4Q174.74-17.75 173.81-17.93 172.89-18.1 171.54-18.1L171.54-18.1Q169.39-18.1 167.29-16.82 165.19-15.55 163.79-12.4L163.79-12.4 163.79 0ZM189.39 0L180.19 0 189.59-16.7 180.74-32.5 190.34-32.5 192.94-27.2Q193.49-26.05 194.09-24.73 194.69-23.4 195.39-21.8L195.39-21.8 195.59-21.8Q196.14-23.4 196.69-24.73 197.24-26.05 197.74-27.2L197.74-27.2 200.04-32.5 209.24-32.5 200.39-16.3 209.79 0 200.19 0 197.19-5.8Q196.49-7.1 195.91-8.4 195.34-9.7 194.69-11.2L194.69-11.2 194.49-11.2Q193.94-9.7 193.36-8.4 192.79-7.1 192.19-5.8L192.19-5.8 189.39 0Z" opacity="1" transform="matrix(1,0,0,1,0,0)" fill="#31c48d" class="wordmark-text-0" data-fill-palette-color="primary" id="text-0"></path></svg></g></svg></g><g transform="matrix(1,0,0,1,0,78.32696516027106)"><svg viewBox="0 0 232.20979199999996 20.321002763901546" height="20.321002763901546" width="232.20979199999996"><g transform="matrix(1,0,0,1,0,0)"><svg width="232.20979199999996" viewBox="5 -28.75 438.7699890136719 38.400001525878906" height="20.321002763901546" data-palette-color="#adbfb8"><path d="M5 0.05L5-28.75 11.15-28.75 11.15-22 18.75-22 18.75-17.2 11.15-17.2 11.15 0.05 5 0.05ZM34.75 0.05L34.75-18.55 29.1-22 20.95-22 20.95-17.2 28.45-17.2 28.45 0.05 34.75 0.05ZM39.65-3.5L39.65-18.55 45.5-22 53.4-22 53.4-17.3 45.9-17.3 45.9-5.4 53.4-5.4 53.4-0.05 45.5-0.05 39.65-3.5ZM69-3.5L69-18.55 63.15-22 55.2-22 55.2-17.3 62.75-17.3 62.75-5.4 55.2-5.4 55.2-0.05 63.15-0.05 69-3.5ZM106.8-9.7L106.8-3.45 101.09 0 93.05 0 93.05-5.25 100.75-5.25 100.75-9.3 93.2-9.3 93.2-13.2 101.09-13.2 106.8-9.7ZM77-12.75L77-18.4 82.7-21.85 90.8-21.85 90.8-17.2 83.3-17.2 83.3-13.2 90.8-13.2 90.8-9.3 82.7-9.3 77-12.75ZM77-6.95L83.3-6.95 83.3-5.25 90.8-5.25 90.8 0 82.7 0 77-3.45 77-6.95ZM106.8-15.05L100.55-15.05 100.55-17.2 93.05-17.2 93.05-21.85 101.09-21.85 106.8-18.4 106.8-15.05ZM145.64-18.55L145.64-6.4 140.04-3 132.14-3 132.14-7 139.39-7 139.39-17.3 131.84-17.3 131.84-22 140.04-22 145.64-18.55ZM115.79 9.65L115.79-22 129.64-22 129.64-17.3 122.14-17.3 122.14-7 129.39-7 129.39-3 122.14-3 122.14 9.65 115.79 9.65ZM153.64-22L159.94-22 159.94 0.05 153.64 0.05 153.64-22ZM159.84-28.7L159.84-24.05 153.64-24.05 153.64-28.7 159.84-28.7ZM177.44-17.2L177.44-21.85 184.94-21.85 184.94-17.2 177.44-17.2ZM184.94-7.5L191.24-7.5 191.24-3.45 185.54 0 177.44 0 177.44-5.25 184.94-5.25 184.94-7.5ZM164.44-19.35L175.19-25.3 175.19-5.25 175.19 0 168.94-3.45 168.94-17.2 164.44-17.15 164.44-19.35ZM196.74-3.4L196.74-9.75 202.44-13.2 210.64-13.2 210.64-9.35 203.09-9.35 203.09-5.25 210.64-5.25 210.64 0.05 202.44 0.05 196.74-3.4ZM203.09-15.05L196.74-15.05 196.74-18.5 202.44-22 210.64-22 210.64-17.3 203.09-17.3 203.09-15.05ZM226.74 0.05L226.74-18.5 221.04-22 212.84-22 212.84-17.3 220.39-17.3 220.39-13.2 212.84-13.2 212.84-9.35 220.39-9.35 220.39-5.25 213.04-5.25 213.04 0.05 226.74 0.05ZM236.23 0.05L236.23-28.75 242.63-28.75 242.63 0.05 236.23 0.05ZM266.63-3.5L266.63-18.55 272.48-22 280.38-22 280.38-17.3 272.88-17.3 272.88-5.4 280.38-5.4 280.38-0.05 272.48-0.05 266.63-3.5ZM295.98-3.5L295.98-18.55 290.13-22 282.18-22 282.18-17.3 289.73-17.3 289.73-5.4 282.18-5.4 282.18-0.05 290.13-0.05 295.98-3.5ZM304.98-0.05L304.98-22 311.33-22 311.33-19.85 318.73-22 318.73-17.3 311.33-17.3 311.33-0.05 304.98-0.05ZM334.93-0.05L334.93-18.55 329.03-22 321.13-22 321.13-17.3 328.68-17.3 328.68-0.05 334.93-0.05ZM344.42 0.05L344.42-28.75 350.82-28.75 350.82 0.05 344.42 0.05ZM359.82-22L366.12-22 366.12 0.05 359.82 0.05 359.82-22ZM366.02-28.7L366.02-24.05 359.82-24.05 359.82-28.7 366.02-28.7ZM375.12-0.05L375.12-22 381.47-22 381.47-19.85 388.87-22 388.87-17.3 381.47-17.3 381.47-0.05 375.12-0.05ZM405.07-0.05L405.07-18.55 399.17-22 391.27-22 391.27-17.3 398.82-17.3 398.82-0.05 405.07-0.05ZM443.77-18.55L443.77-12.85 437.87-9.4 429.87-9.4 429.87-13.25 437.42-13.25 437.42-17.35 429.87-17.35 429.87-22.05 437.87-22.05 443.77-18.55ZM437.22-6.95L443.77-6.95 443.77-3.45 437.87 0 429.87 0 429.87-5.3 437.22-5.3 437.22-6.95ZM413.57-18.55L413.57-3.45 419.47 0 427.42 0 427.42-5.3 419.87-5.3 419.87-9.4 427.42-9.4 427.42-13.25 419.87-13.25 419.87-17.35 427.42-17.35 427.42-22.05 419.47-22.05 413.57-18.55Z" opacity="1" transform="matrix(1,0,0,1,0,0)" fill="#adbfb8" class="slogan-text-1" data-fill-palette-color="secondary" id="text-1"></path></svg></g></svg></g></svg></g></svg></g><g><svg viewBox="0 0 134.06177817571256 136.33149167120655" height="136.33149167120655" width="134.06177817571256"><g><svg xmlns="http://www.w3.org/2000/svg" data-name="Layer 1" viewBox="0.5331013202667236 0 62.934200286865234 63.999698638916016" x="0" y="0" height="136.33149167120655" width="134.06177817571256" class="icon-icon-0" data-fill-palette-color="accent" id="icon-0"><path d="M58.973 52.107l4.494-0.89-0.01-0.14-4.596-0.464 0.28-0.804-5.008-0.467 0.77-0.631L49.72 48.655l0.254-1.161L44.42 48.84l0.326-1.101-2.702 0.934-0.322-0.373 5.883-2.653-1.323-0.756 6.202-3.582-1.316-0.875 4.555-4.583-1.277 0.077L58.46 31.109l-1.004-0.516 3.651-4.455-0.123-0.141-4.831 3.087-0.371-1.079L50.547 31.41l0.243-1.275-5.075 3.98-0.682-1.439-4.315 5.768-0.563-1.431-3.366 5.571-0.173-0.2 1.665-3.897H36.973l2.539-8.169-1.903 0.672 1.903-9.287-2.014 0.559-0.525-8.504L35.931 15.1 34.7 6.932l-1.387 0.559L32.123 0h-0.246l-1.19 7.491L29.3 6.932 28.069 15.1l-1.042-1.343-0.525 8.504-2.014-0.559 1.903 9.287-1.903-0.671 2.539 8.168H25.719l1.665 3.897-0.173 0.2-3.366-5.571-0.563 1.431-4.315-5.768-0.682 1.439-5.075-3.98 0.243 1.275L8.218 28.005l-0.371 1.079-4.832-3.087-0.122 0.141 3.651 4.456L5.54 31.109l4.014 4.819L8.277 35.851l4.555 4.582-1.315 0.876 6.201 3.582-1.323 0.755 5.884 2.653-0.323 0.374-2.702-0.934 0.326 1.1-5.554-1.345L14.28 48.655l-5.182 0.056 0.77 0.631-5.009 0.467 0.28 0.804-4.596 0.464-0.01 0.14 4.495 0.89-0.399 0.772 4.904 0.932-0.86 0.555 5.138 0.54-0.426 1.129 5.716-0.817-0.488 1.062 5.064-1.211-0.056 0.743 4.245-1.456 0.133 0.168L25.445 55.64l0.535 0.32-2.715 1.508 0.529 0.37-2.05 1.932 0.54-0.032-1.829 2.032 0.409 0.218-1.666 1.879 0.047 0.06 2.124-1.3 0.125 0.455 2.303-1.434-0.139 0.538 2.251-1.677 0.246 0.608 1.983-2.432 0.196 0.604 1.578-2.35 0.252 0.318 1.567-2.872-0.13 4.683c-0.025 1.033-0.265 2.651-0.265 3.387 0 0.853 0.297 1.544 0.664 1.545s0.664-0.691 0.664-1.545c0-0.737-0.245-2.366-0.273-3.381l-0.128-4.727 1.573 2.91 0.251-0.317 1.578 2.35 0.196-0.605 1.983 2.433 0.246-0.608 2.252 1.677-0.139-0.538 2.302 1.434 0.126-0.456 2.123 1.3 0.048-0.06-1.666-1.878 0.408-0.218-1.829-2.032 0.54 0.032-2.05-1.932 0.529-0.37L38.02 55.96l0.536-0.32-2.554-1.117 0.133-0.168 4.244 1.457-0.056-0.744 5.065 1.211-0.489-1.062 5.716 0.817L50.19 54.905l5.137-0.54-0.859-0.554 4.904-0.932ZM18.794 40.48C16.206 38.098 13.62 35.73 11.06 33.274a52.329 52.329 0 0 1 8.444 6.433c1.293 1.209 2.57 2.437 3.766 3.743a48.939 48.939 0 0 1 3.421 4.067c-1.368-1.134-2.691-2.301-3.996-3.483Zm3.745 11.953c-1.486 0.069-2.974 0.054-4.459-0.001-1.484-0.073-2.967-0.171-4.441-0.355a43.547 43.547 0 0 1-4.4-0.711c1.488 0.019 2.966 0.083 4.444 0.139l4.428 0.178 4.425 0.173 4.441 0.127A35.127 35.127 0 0 1 22.539 52.433Zm4.368 5.231a20.816 20.816 0 0 1-2.79 1.922 20.825 20.825 0 0 1 2.477-2.312 20.556 20.556 0 0 1 2.791-1.921A20.561 20.561 0 0 1 26.907 57.664ZM32 44.654c-0.415-5.056-0.51-10.113-0.525-15.169 0.017-5.056 0.112-10.113 0.525-15.169 0.413 5.056 0.508 10.113 0.525 15.169C32.51 34.541 32.415 39.598 32 44.654Zm5.406 12.62a20.83 20.83 0 0 1 2.477 2.312 20.82 20.82 0 0 1-2.79-1.922 20.561 20.561 0 0 1-2.478-2.311A20.556 20.556 0 0 1 37.406 57.274ZM40.73 43.45c1.196-1.306 2.474-2.533 3.766-3.743A52.329 52.329 0 0 1 52.94 33.274c-2.56 2.456-5.147 4.824-7.735 7.207l-3.9 3.553C40 45.216 38.676 46.383 37.309 47.517A48.939 48.939 0 0 1 40.73 43.45Zm9.631 8.627c-1.475 0.183-2.958 0.282-4.441 0.355-1.485 0.056-2.973 0.071-4.459 0.001a35.128 35.128 0 0 1-4.438-0.45l4.441-0.126 4.424-0.174 4.428-0.178c1.478-0.056 2.956-0.12 4.445-0.139A43.55 43.55 0 0 1 50.361 52.077Z" fill="#096a2e" data-fill-palette-color="accent"></path></svg></g></svg></g></svg></g><defs></defs></svg><rect width="395.52" height="95.40050308155836" fill="none" stroke="none" visibility="hidden"></rect></g></svg></g></svg>