<svg xmlns="http://www.w3.org/2000/svg" version="1.1" xmlns:xlink="http://www.w3.org/1999/xlink" xmlns:svgjs="http://svgjs.dev/svgjs" width="1000" height="179" viewBox="0 0 1000 179"><g transform="matrix(1,0,0,1,-0.6060606060606801,-0.10138850980945335)"><svg viewBox="0 0 396 71" data-background-color="#ffffff" preserveAspectRatio="xMidYMid meet" height="179" width="1000" xmlns="http://www.w3.org/2000/svg" xmlns:xlink="http://www.w3.org/1999/xlink"><defs></defs><g id="tight-bounds" transform="matrix(1,0,0,1,0.24000000000003752,0.04021555417023137)"><svg viewBox="0 0 395.5199999999999 70.91956889165955" height="70.91956889165955" width="395.5199999999999"><g><svg viewBox="0 0 504.69519336896076 90.49546302442216" height="70.91956889165955" width="395.5199999999999"><g transform="matrix(1,0,0,1,0,25.466251877963373)"><svg viewBox="0 0 395.5199999999999 39.56295926849542" height="39.56295926849542" width="395.5199999999999"><g><svg viewBox="0 0 395.5199999999999 39.56295926849542" height="39.56295926849542" width="395.5199999999999"><g><svg viewBox="0 0 395.5199999999999 39.56295926849542" height="39.56295926849542" width="395.5199999999999"><g transform="matrix(1,0,0,1,0,0)"><svg width="395.5199999999999" viewBox="3.8499999046325684 -35.5 358.1199951171875 36.099998474121094" height="39.56295926849542" data-palette-color="#4790fc"><g class="undefined-text-0" data-fill-palette-color="primary" id="text-0"><path d="M29.95 0L29.95-22.9 29.8-22.9 27.25-17.8 20.45-5.45 13.8-17.75 11.15-23.25 11-23.25 11 0 3.85 0 3.85-34.9 11.9-34.9 20.45-18.55 20.55-18.55 29-34.9 37.1-34.9 37.1 0 29.95 0ZM68.55 0L44.8 0 44.8-34.9 68.55-34.9 68.55-28.15 52.4-28.15 52.4-21 66.25-21 66.25-14.3 52.4-14.3 52.4-6.75 68.55-6.75 68.55 0ZM75.15 0L75.15-34.9 88.3-34.9Q91.75-34.9 94.6-33.8 97.45-32.7 99.45-30.53 101.45-28.35 102.55-25.08 103.65-21.8 103.65-17.45L103.65-17.45Q103.65-13.1 102.55-9.83 101.45-6.55 99.45-4.38 97.45-2.2 94.6-1.1 91.75 0 88.3 0L88.3 0 75.15 0ZM82.75-6.75L88.3-6.75Q91.7-6.75 93.65-8.65 95.6-10.55 95.6-14.75L95.6-14.75 95.6-20.15Q95.6-24.35 93.65-26.25 91.7-28.15 88.3-28.15L88.3-28.15 82.75-28.15 82.75-6.75ZM130.89 0L109.99 0 109.99-34.9 117.59-34.9 117.59-6.75 130.89-6.75 130.89 0ZM151.74 0L135.14 0 135.14-6.05 139.64-6.05 139.64-28.85 135.14-28.85 135.14-34.9 151.74-34.9 151.74-28.85 147.24-28.85 147.24-6.05 151.74-6.05 151.74 0ZM178.29 0L168.74-16.5 165.39-23.5 165.24-23.5 165.24 0 158.09 0 158.09-34.9 166.39-34.9 175.94-18.4 179.29-11.4 179.44-11.4 179.44-34.9 186.59-34.9 186.59 0 178.29 0ZM218.03 0L194.28 0 194.28-34.9 218.03-34.9 218.03-28.15 201.88-28.15 201.88-21 215.74-21 215.74-14.3 201.88-14.3 201.88-6.75 218.03-6.75 218.03 0Z" fill="#4790fc" data-fill-palette-color="primary"></path><path d="M242.08 0L232.53-16.5 229.18-23.5 229.03-23.5 229.03 0 221.88 0 221.88-34.9 230.18-34.9 239.73-18.4 243.08-11.4 243.23-11.4 243.23-34.9 250.38-34.9 250.38 0 242.08 0ZM281.83 0L258.08 0 258.08-34.9 281.83-34.9 281.83-28.15 265.68-28.15 265.68-21 279.53-21 279.53-14.3 265.68-14.3 265.68-6.75 281.83-6.75 281.83 0ZM302.63 0L293.93 0 286.03-34.9 293.53-34.9 296.83-18.15 298.68-8.45 298.83-8.45 301.03-18.15 304.88-34.9 313.18-34.9 317.08-18.15 319.23-8.45 319.38-8.45 321.23-18.15 324.58-34.9 331.78-34.9 323.68 0 315.03 0 310.63-18.9 308.93-26.55 308.78-26.55 307.03-18.9 302.63 0ZM348.37 0.6L348.37 0.6Q343.77 0.6 340.57-0.98 337.37-2.55 335.12-5.05L335.12-5.05 340.12-10.1Q343.67-6.1 348.87-6.1L348.87-6.1Q351.67-6.1 353.02-7.25 354.37-8.4 354.37-10.3L354.37-10.3Q354.37-11.75 353.57-12.73 352.77-13.7 350.32-14.05L350.32-14.05 346.87-14.5Q341.32-15.2 338.75-17.85 336.17-20.5 336.17-24.9L336.17-24.9Q336.17-27.25 337.07-29.2 337.97-31.15 339.65-32.55 341.32-33.95 343.75-34.73 346.17-35.5 349.27-35.5L349.27-35.5Q353.22-35.5 356.22-34.25 359.22-33 361.37-30.6L361.37-30.6 356.32-25.5Q355.07-26.95 353.3-27.88 351.52-28.8 348.82-28.8L348.82-28.8Q346.27-28.8 345.02-27.9 343.77-27 343.77-25.4L343.77-25.4Q343.77-23.6 344.75-22.8 345.72-22 347.92-21.65L347.92-21.65 351.37-21.1Q356.77-20.25 359.37-17.78 361.97-15.3 361.97-10.75L361.97-10.75Q361.97-8.25 361.07-6.15 360.17-4.05 358.45-2.55 356.72-1.05 354.17-0.23 351.62 0.6 348.37 0.6Z" fill="#ed2326" data-fill-palette-color="secondary"></path></g></svg></g></svg></g></svg></g></svg></g><g transform="matrix(1,0,0,1,414.1997303445386,0)"><svg viewBox="0 0 90.49546302442216 90.49546302442216" height="90.49546302442216" width="90.49546302442216"><g><svg></svg></g><g id="icon-0"><svg viewBox="0 0 90.49546302442216 90.49546302442216" height="90.49546302442216" width="90.49546302442216"><g><path d="M0 45.248c0-24.99 20.258-45.248 45.248-45.248 24.99 0 45.248 20.258 45.247 45.248 0 24.99-20.258 45.248-45.247 45.247-24.99 0-45.248-20.258-45.248-45.247zM45.248 86.928c23.019 0 41.68-18.661 41.68-41.68 0-23.019-18.661-41.68-41.68-41.68-23.019 0-41.68 18.661-41.68 41.68 0 23.019 18.661 41.68 41.68 41.68z" data-fill-palette-color="accent" fill="#ed2326" stroke="transparent"></path></g><g transform="matrix(1,0,0,1,22.095292116730846,24.417543059646547)"><svg viewBox="0 0 46.30487879096047 41.66037690512907" height="41.66037690512907" width="46.30487879096047"><g><svg xmlns="http://www.w3.org/2000/svg" xmlns:xlink="http://www.w3.org/1999/xlink" version="1.1" x="0" y="0" viewBox="13.320999145507812 17 73.35800170898438 66" enable-background="new 0 0 100 100" xml:space="preserve" height="41.66037690512907" width="46.30487879096047" class="icon-x-0" data-fill-palette-color="accent" id="x-0"><g fill="#ed2326" data-fill-palette-color="accent"><polygon points="74.11,17 26.046,17 19,20.067 19,30 80,30 80,20.067  " fill="#ed2326" data-fill-palette-color="accent"></polygon><path d="M86.679 56l-9.764-25H70.98l7.479 25h0.003c0.003 0 0.007 0.354 0.015 0.441-0.26 2.004-1.973 3.466-4.049 3.466-2.167 0-3.847-1.907-3.983-3.907l0 0-5.467-25h-5.934l3.183 25 0 0c-0.137 2-1.865 3.898-4.032 3.898-2.22 0-4.08-1.898-4.136-3.898l0 0-1.063-25H50.05h-0.017-2.944l-1.07 25h0.017c-0.137 2-1.907 3.898-4.074 3.898-2.221 0-4.113-1.898-4.169-3.898l0 0 3.163-25h-5.934l-5.468 25 0 0c-0.137 2-1.817 3.996-3.984 3.996-2.077 0-3.79-1.638-4.049-3.645C21.528 56.265 21.533 56 21.535 56h0.005l7.48-25h-5.935l-9.764 25 0 0c0.056 2 1.57 4.154 3.792 4.154 0.821 0 1.887-0.067 1.887-0.484V83h61V59.769c2 0.356 1.552 0.386 2.308 0.386C84.528 60.154 86.622 58 86.679 56L86.679 56z" fill="#ed2326" data-fill-palette-color="accent"></path></g></svg></g></svg></g></svg></g></svg></g></svg></g></svg><rect width="395.5199999999999" height="70.91956889165955" fill="none" stroke="none" visibility="hidden"></rect></g></svg></g></svg>